<svg version="1.1" id="Layer_1" xmlns="http://www.w3.org/2000/svg" xmlns:xlink="http://www.w3.org/1999/xlink" x="0px" y="0px"
	 width="100%" viewBox="0 0 256 256" enable-background="new 0 0 256 256" xml:space="preserve">
<path fill="#000000" opacity="1.000000" stroke="none" 
	d="
M147.000000,257.000000 
	C98.000000,257.000000 49.500008,257.000000 1.000006,257.000000 
	C1.000004,171.666672 1.000004,86.333351 1.000002,1.000018 
	C86.333321,1.000012 171.666641,1.000012 257.000000,1.000006 
	C257.000000,86.333313 257.000000,171.666626 257.000000,256.999969 
	C220.500000,257.000000 184.000000,257.000000 147.000000,257.000000 
M112.056877,17.011347 
	C107.140038,17.011347 102.223206,17.011347 96.953369,17.011347 
	C96.953369,22.518192 96.953369,27.578421 96.953369,33.128693 
	C86.109749,33.128693 75.621101,33.128693 64.836349,33.128693 
	C64.836349,38.753460 64.836349,43.871967 63.921791,48.998135 
	C59.040909,48.998135 54.160023,48.998135 48.857964,48.998135 
	C48.857964,54.810207 48.857964,59.907364 47.946949,65.000351 
	C43.023151,65.000351 38.099354,65.000351 32.796741,65.000351 
	C32.796741,76.007050 32.796741,86.412430 32.796741,97.199142 
	C27.333597,97.199142 22.256443,97.199142 17.157387,97.199142 
	C17.157387,113.391289 17.157387,129.187912 17.031507,145.916153 
	C17.031507,156.175476 17.031507,166.434799 17.031507,176.579468 
	C28.076857,176.579468 38.456081,176.579468 49.228615,176.579468 
	C49.228615,171.227219 49.228615,166.291992 49.228615,160.842575 
	C65.427032,160.842575 81.221214,160.842575 97.945221,160.988708 
	C118.958321,160.940018 139.971420,160.891312 161.916153,160.968491 
	C177.505829,160.968491 193.095505,160.968491 209.258408,160.968491 
	C209.258408,166.736481 209.258408,171.796768 209.258408,176.684082 
	C220.104248,176.684082 230.365662,176.684082 240.842575,176.684082 
	C240.842575,165.908829 240.842575,155.446716 240.988708,144.054779 
	C240.988708,128.465057 240.988708,112.875328 240.988708,96.896652 
	C235.432617,96.896652 230.352737,96.896652 224.907562,96.896652 
	C224.907562,86.105865 224.907562,75.703064 224.907562,65.004532 
	C219.397491,65.004532 214.269745,65.004532 209.028473,64.075096 
	C209.028473,59.180820 209.028473,54.286545 209.028473,48.990501 
	C203.326782,48.990501 198.245224,48.990501 193.011780,48.064388 
	C193.011780,43.147171 193.011780,38.229954 193.011780,32.817719 
	C182.055298,32.817719 171.567276,32.817719 160.734192,32.817719 
	C160.734192,27.253864 160.734192,22.198738 160.734192,17.157387 
	C155.250626,17.157387 150.133057,17.157387 144.083847,17.031507 
	C133.717438,17.073483 123.351021,17.115456 112.056877,17.011347 
M134.477051,177.000000 
	C127.381340,177.000000 120.285622,177.000000 112.809494,177.000000 
	C112.809494,187.991714 112.809494,198.400543 112.809494,208.704330 
	C107.337479,208.704330 102.265984,208.704330 96.805756,208.704330 
	C96.805756,198.005005 96.805756,187.596558 96.805756,177.294922 
	C86.002518,177.294922 75.598595,177.294922 64.804001,177.294922 
	C64.804001,182.663132 64.804001,187.742416 64.804001,193.200119 
	C59.333290,193.200119 54.254768,193.200119 49.298615,193.200119 
	C49.298615,204.004990 49.298615,214.409195 49.298615,225.203430 
	C54.670647,225.203430 59.748997,225.203430 65.207527,225.203430 
	C65.207527,230.674286 65.207527,235.751907 65.207527,240.711624 
	C107.999908,240.711624 150.393387,240.711624 193.182861,240.711624 
	C193.182861,235.350143 193.182861,230.269302 193.182861,224.813049 
	C198.653152,224.813049 203.733627,224.813049 208.707932,224.813049 
	C208.707932,214.008408 208.707932,203.604446 208.707932,192.809723 
	C203.342651,192.809723 198.262634,192.809723 192.805634,192.809723 
	C192.805634,187.339233 192.805634,182.259674 192.805634,177.296158 
	C182.001221,177.296158 171.597519,177.296158 160.805023,177.296158 
	C160.805023,187.996307 160.805023,198.405167 160.805023,208.702072 
	C155.331360,208.702072 150.260345,208.702072 144.801239,208.702072 
	C144.801239,198.000488 144.801239,187.592041 144.801239,177.000000 
	C141.427383,177.000000 138.446899,177.000000 134.477051,177.000000 
z"/>
<path fill="#51C517" opacity="1.000000" stroke="none" 
	d="
M97.015404,160.842575 
	C81.221214,160.842575 65.427032,160.842575 49.228615,160.842575 
	C49.228615,166.291992 49.228615,171.227219 49.228615,176.579468 
	C38.456081,176.579468 28.076857,176.579468 17.031507,176.579468 
	C17.031507,166.434799 17.031507,156.175476 17.551502,145.456635 
	C28.318661,144.997101 38.565826,144.997101 49.281433,144.997101 
	C49.281433,139.241058 49.281433,134.174133 49.281433,128.825546 
	C54.707184,128.825546 59.651691,128.825546 64.734871,128.825546 
	C64.734871,112.800468 64.734871,97.084061 64.734871,80.884911 
	C59.414539,80.884911 54.344200,80.884911 48.857964,80.884911 
	C48.857964,75.272583 48.857964,70.138557 48.857964,65.004524 
	C48.857964,59.907364 48.857964,54.810207 48.857964,48.998135 
	C54.160023,48.998135 59.040909,48.998135 64.450119,49.456108 
	C64.978439,54.849529 64.978439,59.784977 64.978439,64.661018 
	C76.000427,64.661018 86.394066,64.661018 97.267654,64.661018 
	C97.267654,59.256859 97.267654,54.186188 97.267654,48.831432 
	C102.699829,48.831432 107.647346,48.831432 112.984604,48.831432 
	C112.984604,38.068588 112.984604,27.613010 112.984604,17.157431 
	C123.351021,17.115456 133.717438,17.073483 144.543365,17.551502 
	C145.002899,28.325682 145.002899,38.579868 145.002899,49.129837 
	C150.660004,49.129837 155.608780,49.129837 161.032776,49.129837 
	C161.032776,54.495930 161.032776,59.572128 161.032776,64.699509 
	C171.918961,64.699509 182.313141,64.699509 193.163666,64.699509 
	C193.163666,59.266655 193.163666,54.128578 193.163666,48.990501 
	C198.245224,48.990501 203.326782,48.990501 209.028473,48.990501 
	C209.028473,54.286545 209.028473,59.180820 209.023193,65.004631 
	C209.017899,70.864311 209.017899,75.794456 209.017899,81.192215 
	C203.334122,81.192215 198.270248,81.192215 193.358673,81.192215 
	C193.358673,97.394417 193.358673,113.110481 193.358673,129.303299 
	C198.779892,129.303299 203.842590,129.303299 209.191254,129.303299 
	C209.191254,134.728485 209.191254,139.669601 209.191254,144.984604 
	C219.944839,144.984604 230.393707,144.984604 240.842575,144.984604 
	C240.842575,155.446716 240.842575,165.908829 240.842575,176.684082 
	C230.365662,176.684082 220.104248,176.684082 209.258408,176.684082 
	C209.258408,171.796768 209.258408,166.736481 209.258408,160.968491 
	C193.095505,160.968491 177.505829,160.968491 161.456619,160.449585 
	C160.997086,155.013031 160.997086,150.095398 160.997086,144.714691 
	C166.763367,144.714691 171.827972,144.714691 176.773926,144.714691 
	C176.773926,128.635193 176.773926,113.039742 176.773926,96.964790 
	C171.498169,96.964790 166.426834,96.964790 160.898254,96.964790 
	C160.898254,91.430038 160.898254,86.360535 160.898254,81.303375 
	C139.372437,81.303375 118.330856,81.303375 96.809601,81.303375 
	C96.809601,86.664909 96.809601,91.728569 96.809601,97.256943 
	C91.266998,97.256943 86.201813,97.256943 81.387924,97.256943 
	C81.387924,113.457359 81.387924,129.172699 81.387924,145.183395 
	C86.717361,145.183395 91.659203,145.183395 97.015404,145.183395 
	C97.015404,150.600128 97.015404,155.721344 97.015404,160.842575 
z"/>
<path fill="#FFFFFF" opacity="1.000000" stroke="none" 
	d="
M134.971741,177.000000 
	C138.446899,177.000000 141.427383,177.000000 144.801239,177.000000 
	C144.801239,187.592041 144.801239,198.000488 144.801239,208.702072 
	C150.260345,208.702072 155.331360,208.702072 160.805023,208.702072 
	C160.805023,198.405167 160.805023,187.996307 160.805023,177.296158 
	C171.597519,177.296158 182.001221,177.296158 192.805634,177.296158 
	C192.805634,182.259674 192.805634,187.339233 192.805634,192.809723 
	C198.262634,192.809723 203.342651,192.809723 208.707932,192.809723 
	C208.707932,203.604446 208.707932,214.008408 208.707932,224.813049 
	C203.733627,224.813049 198.653152,224.813049 193.182861,224.813049 
	C193.182861,230.269302 193.182861,235.350143 193.182861,240.711624 
	C150.393387,240.711624 107.999908,240.711624 65.207527,240.711624 
	C65.207527,235.751907 65.207527,230.674286 65.207527,225.203430 
	C59.748997,225.203430 54.670647,225.203430 49.298615,225.203430 
	C49.298615,214.409195 49.298615,204.004990 49.298615,193.200119 
	C54.254768,193.200119 59.333290,193.200119 64.804001,193.200119 
	C64.804001,187.742416 64.804001,182.663132 64.804001,177.294922 
	C75.598595,177.294922 86.002518,177.294922 96.805756,177.294922 
	C96.805756,187.596558 96.805756,198.005005 96.805756,208.704330 
	C102.265984,208.704330 107.337479,208.704330 112.809494,208.704330 
	C112.809494,198.400543 112.809494,187.991714 112.809494,177.000000 
	C120.285622,177.000000 127.381340,177.000000 134.971741,177.000000 
z"/>
<path fill="#FFFFFF" opacity="1.000000" stroke="none" 
	d="
M97.480316,160.915649 
	C97.015404,155.721344 97.015404,150.600128 97.015404,145.183395 
	C91.659203,145.183395 86.717361,145.183395 81.387924,145.183395 
	C81.387924,129.172699 81.387924,113.457359 81.387924,97.256943 
	C86.201813,97.256943 91.266998,97.256943 96.809601,97.256943 
	C96.809601,91.728569 96.809601,86.664909 96.809601,81.303375 
	C118.330856,81.303375 139.372437,81.303375 160.898254,81.303375 
	C160.898254,86.360535 160.898254,91.430038 160.898254,96.964790 
	C166.426834,96.964790 171.498169,96.964790 176.773926,96.964790 
	C176.773926,113.039742 176.773926,128.635193 176.773926,144.714691 
	C171.827972,144.714691 166.763367,144.714691 160.997086,144.714691 
	C160.997086,150.095398 160.997086,155.013031 160.990814,160.386642 
	C139.971420,160.891312 118.958321,160.940018 97.480316,160.915649 
z"/>
<path fill="#FFFFFF" opacity="1.000000" stroke="none" 
	d="
M48.402458,65.002441 
	C48.857964,70.138557 48.857964,75.272583 48.857964,80.884911 
	C54.344200,80.884911 59.414539,80.884911 64.734871,80.884911 
	C64.734871,97.084061 64.734871,112.800468 64.734871,128.825546 
	C59.651691,128.825546 54.707184,128.825546 49.281433,128.825546 
	C49.281433,134.174133 49.281433,139.241058 49.281433,144.997101 
	C38.565826,144.997101 28.318661,144.997101 17.614441,144.990814 
	C17.157387,129.187912 17.157387,113.391289 17.157387,97.199142 
	C22.256443,97.199142 27.333597,97.199142 32.796741,97.199142 
	C32.796741,86.412430 32.796741,76.007050 32.796741,65.000351 
	C38.099354,65.000351 43.023151,65.000351 48.402458,65.002441 
z"/>
<path fill="#FFFFFF" opacity="1.000000" stroke="none" 
	d="
M240.915649,144.519684 
	C230.393707,144.984604 219.944839,144.984604 209.191254,144.984604 
	C209.191254,139.669601 209.191254,134.728485 209.191254,129.303299 
	C203.842590,129.303299 198.779892,129.303299 193.358673,129.303299 
	C193.358673,113.110481 193.358673,97.394417 193.358673,81.192215 
	C198.270248,81.192215 203.334122,81.192215 209.017899,81.192215 
	C209.017899,75.794456 209.017899,70.864311 209.079956,65.469345 
	C214.269745,65.004532 219.397491,65.004532 224.907562,65.004532 
	C224.907562,75.703064 224.907562,86.105865 224.907562,96.896652 
	C230.352737,96.896652 235.432617,96.896652 240.988708,96.896652 
	C240.988708,112.875328 240.988708,128.465057 240.915649,144.519684 
z"/>
<path fill="#FFFFFF" opacity="1.000000" stroke="none" 
	d="
M112.520737,17.084389 
	C112.984604,27.613010 112.984604,38.068588 112.984604,48.831432 
	C107.647346,48.831432 102.699829,48.831432 97.267654,48.831432 
	C97.267654,54.186188 97.267654,59.256859 97.267654,64.661018 
	C86.394066,64.661018 76.000427,64.661018 64.978439,64.661018 
	C64.978439,59.784977 64.978439,54.849529 64.907394,49.452278 
	C64.836349,43.871967 64.836349,38.753460 64.836349,33.128693 
	C75.621101,33.128693 86.109749,33.128693 96.953369,33.128693 
	C96.953369,27.578421 96.953369,22.518192 96.953369,17.011347 
	C102.223206,17.011347 107.140038,17.011347 112.520737,17.084389 
z"/>
<path fill="#FFFFFF" opacity="1.000000" stroke="none" 
	d="
M193.087723,48.527443 
	C193.163666,54.128578 193.163666,59.266655 193.163666,64.699509 
	C182.313141,64.699509 171.918961,64.699509 161.032776,64.699509 
	C161.032776,59.572128 161.032776,54.495930 161.032776,49.129837 
	C155.608780,49.129837 150.660004,49.129837 145.002899,49.129837 
	C145.002899,38.579868 145.002899,28.325682 145.009186,17.614441 
	C150.133057,17.157387 155.250626,17.157387 160.734192,17.157387 
	C160.734192,22.198738 160.734192,27.253864 160.734192,32.817719 
	C171.567276,32.817719 182.055298,32.817719 193.011780,32.817719 
	C193.011780,38.229954 193.011780,43.147171 193.087723,48.527443 
z"/>
</svg>