<svg xmlns="http://www.w3.org/2000/svg" viewBox="0 0 256 256"><path d="M80 8v8H48v16H32v16H16v32H0v112h16v16h16v32h16v16h160v-16h16v-32h16v-16h16V80h-16V48h-16V32h-16V16h-32V0H80zm80 16v8h32v16h16v16h16v32h16v80h-32v-16H48v16H16V96h16V64h16V48h16V32h32V16h64zM96 192v16h16v-32h32v32h16v-32h32v16h16v32h-16v16H64v-16H48v-32h16v-16h32z"/><path fill="#fff" d="M96 24v8H64v32h32V48h16V16H96zm48 8v16h16v16h32V32h-32V16h-16zM32 80v16H16v48h32v-16h16V80H48V64H32zm176-8v8h-16v48h16v16h32V96h-16V64h-16zM96 88v8H80v48h16v16h64v-16h16V96h-16V80H96zm-32 96v8H48v32h16v16h128v-16h16v-32h-16v-16h-32v32h-16v-32h-32v32H96v-32H64z"/><path fill="#2aaa00" d="M112 32v16H96v16H64V48H48v32h16v48H48v16H16v32h32v-16h48v-16H80V96h16V80h64v16h16v48h-16v16h48v16h32v-32h-32v-16h-16V80h16V48h-16v16h-32V48h-16V16h-32z"/></svg>